<svg width="24" height="24" viewBox="0 0 24 24" fill="none" xmlns="http://www.w3.org/2000/svg">
<path d="M0 12C0 8.27247 0 6.4087 0.608964 4.93853C1.42092 2.97831 2.97831 1.42092 4.93853 0.608964C6.4087 0 8.27247 0 12 0C15.7275 0 17.5913 0 19.0615 0.608964C21.0217 1.42092 22.5791 2.97831 23.391 4.93853C24 6.4087 24 8.27247 24 12C24 15.7275 24 17.5913 23.391 19.0615C22.5791 21.0217 21.0217 22.5791 19.0615 23.391C17.5913 24 15.7275 24 12 24C8.27247 24 6.4087 24 4.93853 23.391C2.97831 22.5791 1.42092 21.0217 0.608964 19.0615C0 17.5913 0 15.7275 0 12Z" fill="#E3F5FF"/>
<path d="M12 6.454C6.84573 6.38 2.80698 10.728 6.30773 14.4157C6.33656 14.4429 6.35879 14.4763 6.37274 14.5134C6.38669 14.5505 6.39199 14.5903 6.38823 14.6297C6.27844 15.5561 5.88658 16.4263 5.26573 17.1225C5.23461 17.1573 5.2138 17.2002 5.20563 17.2462C5.19746 17.2922 5.20226 17.3396 5.21949 17.383C5.23672 17.4264 5.2657 17.4642 5.30318 17.4921C5.34067 17.52 5.38518 17.537 5.43173 17.541C5.44523 17.542 5.51098 17.5465 5.61848 17.5465C6.93226 17.5325 8.20133 17.0675 9.21323 16.2295C9.24632 16.201 9.2859 16.1811 9.32849 16.1715C9.37109 16.1619 9.41538 16.1629 9.45748 16.1745C13.4652 17.432 19.0485 15.2295 19 11.484C19 8.7105 15.86 6.454 12 6.454ZM12 16.0165C11.1866 16.0192 10.3768 15.9103 9.59298 15.693C9.47239 15.6594 9.3454 15.6558 9.22311 15.6826C9.10082 15.7094 8.98696 15.7658 8.89148 15.8467C8.06533 16.5258 7.05213 16.9373 5.98648 17.0267C6.47305 16.3335 6.78146 15.5312 6.88448 14.6905C6.89763 14.5757 6.88438 14.4595 6.84573 14.3507C6.80708 14.2418 6.74406 14.1433 6.66148 14.0625C6.30551 13.7321 6.01933 13.3337 5.81984 12.8909C5.62035 12.4481 5.51159 11.9698 5.49998 11.4842C5.49998 8.98625 8.41573 6.95425 12 6.95425C20.627 7.2105 20.625 15.7595 12 16.0165Z" fill="#231F20"/>
<path d="M14.9418 9.951H13.5993C13.5205 9.95116 13.4438 9.92631 13.38 9.88003C13.3163 9.83375 13.269 9.76844 13.2448 9.6935L12.83 8.41675C12.7714 8.24309 12.6597 8.0922 12.5108 7.98533C12.3619 7.87846 12.1832 7.82099 11.9999 7.82101C11.8166 7.82104 11.638 7.87857 11.4891 7.98548C11.3402 8.0924 11.2286 8.24332 11.17 8.417L10.755 9.6935C10.7308 9.76836 10.6835 9.83361 10.6199 9.87988C10.5563 9.92615 10.4797 9.95106 10.401 9.951H9.05851C8.87421 9.95093 8.69462 10.0092 8.54549 10.1175C8.39636 10.2258 8.28535 10.3786 8.22839 10.5538C8.17143 10.7291 8.17143 10.9179 8.2284 11.0932C8.28537 11.2685 8.39638 11.4212 8.54551 11.5295L9.63126 12.3188C9.69509 12.3648 9.74262 12.43 9.76697 12.5049C9.79133 12.5798 9.79125 12.6604 9.76676 12.7353L9.35201 14.0118C9.29716 14.1867 9.29863 14.3745 9.35621 14.5486C9.41378 14.7227 9.52456 14.8744 9.67292 14.9822C9.82128 15.09 9.99973 15.1485 10.1831 15.1494C10.3665 15.1504 10.5455 15.0937 10.695 14.9875L11.781 14.1988C11.8446 14.1525 11.9213 14.1275 12 14.1275C12.0787 14.1274 12.1553 14.1523 12.219 14.1985L13.305 14.9878C13.4541 15.0961 13.6337 15.1544 13.818 15.1544C14.0023 15.1544 14.1819 15.0961 14.331 14.9877C14.4801 14.8794 14.591 14.7266 14.648 14.5514C14.7049 14.3761 14.705 14.1873 14.648 14.012L14.233 12.7353C14.2086 12.6604 14.2085 12.5796 14.2329 12.5047C14.2573 12.4298 14.3049 12.3646 14.3688 12.3185L15.4545 11.5298C15.6016 11.4204 15.7106 11.2676 15.7662 11.093C15.8219 10.9183 15.8214 10.7307 15.7648 10.5563C15.7081 10.382 15.5983 10.2299 15.4506 10.1213C15.303 10.0127 15.125 9.95313 14.9418 9.951ZM15.1608 11.1253L14.0748 11.914C13.9254 12.0221 13.8142 12.1749 13.7572 12.3502C13.7002 12.5256 13.7003 12.7145 13.7575 12.8898L14.1725 14.1665C14.1979 14.2415 14.1987 14.3227 14.1747 14.3981C14.1507 14.4736 14.1032 14.5394 14.0391 14.5859C13.9751 14.6325 13.8978 14.6573 13.8186 14.6568C13.7394 14.6564 13.6625 14.6306 13.599 14.5833L12.513 13.794C12.364 13.6854 12.1844 13.6268 12 13.6268C11.8156 13.6268 11.636 13.6854 11.487 13.794L10.401 14.583C10.3374 14.6293 10.2607 14.6543 10.1819 14.6543C10.1032 14.6543 10.0265 14.6293 9.96286 14.5831C9.89919 14.5368 9.85182 14.4715 9.82755 14.3966C9.80328 14.3217 9.80335 14.2411 9.82776 14.1663L10.2425 12.8898C10.2997 12.7145 10.2998 12.5256 10.2428 12.3503C10.1858 12.175 10.0746 12.0223 9.92526 11.9143L8.83926 11.125C8.77555 11.0788 8.72813 11.0136 8.70378 10.9387C8.67944 10.8639 8.67942 10.7832 8.70375 10.7084C8.72807 10.6335 8.77547 10.5683 8.83916 10.5221C8.90285 10.4758 8.97955 10.451 9.05826 10.451H10.4008C10.5852 10.4514 10.7649 10.3932 10.9141 10.2849C11.0633 10.1765 11.1742 10.0235 11.2308 9.848L11.6455 8.5715C11.669 8.49588 11.7161 8.42975 11.7799 8.3828C11.8437 8.33584 11.9208 8.31051 12 8.31051C12.0792 8.31051 12.1563 8.33584 12.2201 8.3828C12.2839 8.42975 12.331 8.49588 12.3545 8.5715L12.7695 9.848C12.8261 10.0234 12.9369 10.1763 13.086 10.2847C13.235 10.3931 13.4147 10.4513 13.599 10.451H14.9415C15.0207 10.45 15.0981 10.4743 15.1625 10.5205C15.2269 10.5666 15.2748 10.6321 15.2993 10.7074C15.3238 10.7827 15.3236 10.8639 15.2987 10.9391C15.2737 11.0143 15.2254 11.0795 15.1608 11.1253Z" fill="#231F20"/>
</svg>
