<svg width="18" height="17" viewBox="0 0 18 17" fill="none" xmlns="http://www.w3.org/2000/svg">
<path d="M9.62498 8.84375V13.4375C9.62498 13.6115 9.55913 13.7785 9.44192 13.9015C9.32471 14.0246 9.16574 14.0937 8.99998 14.0937C8.83422 14.0937 8.67525 14.0246 8.55804 13.9015C8.44083 13.7785 8.37498 13.6115 8.37498 13.4375V8.84375C8.37498 8.6697 8.44083 8.50278 8.55804 8.37971C8.67525 8.25664 8.83422 8.1875 8.99998 8.1875C9.16574 8.1875 9.32471 8.25664 9.44192 8.37971C9.55913 8.50278 9.62498 8.6697 9.62498 8.84375ZM12.5031 8.77812L12.0656 13.3719C12.057 13.4579 12.0646 13.5448 12.0881 13.6277C12.1115 13.7106 12.1504 13.7878 12.2024 13.8549C12.2543 13.922 12.3184 13.9776 12.391 14.0186C12.4635 14.0596 12.543 14.0851 12.625 14.0937C12.6461 14.095 12.6672 14.095 12.6883 14.0937C12.8431 14.0935 12.9923 14.033 13.107 13.9239C13.2218 13.8148 13.2939 13.6649 13.3094 13.5031L13.7469 8.90937C13.7634 8.7362 13.7138 8.5632 13.6089 8.42843C13.504 8.29367 13.3524 8.20818 13.1875 8.19078C13.0225 8.17337 12.8578 8.22548 12.7294 8.33563C12.6011 8.44577 12.5197 8.60495 12.5031 8.77812ZM5.49686 8.77812C5.48028 8.60495 5.39886 8.44577 5.27052 8.33563C5.14217 8.22548 4.97741 8.17337 4.81248 8.19078C4.64755 8.20818 4.49596 8.29367 4.39105 8.42843C4.28615 8.5632 4.23653 8.7362 4.25311 8.90937L4.69061 13.5031C4.70615 13.6656 4.7788 13.8161 4.89437 13.9253C5.00994 14.0345 5.16013 14.0946 5.31561 14.0937C5.33668 14.095 5.35781 14.095 5.37889 14.0937C5.46055 14.0851 5.5398 14.0597 5.61211 14.0189C5.68442 13.9782 5.74837 13.9228 5.80032 13.8561C5.85226 13.7894 5.89118 13.7126 5.91484 13.63C5.93851 13.5475 5.94647 13.4609 5.93826 13.3752L5.49686 8.77812ZM17.7445 6.3057L16.5672 15.5802C16.5261 15.8949 16.3781 16.1835 16.1504 16.3927C15.9227 16.6019 15.6307 16.7177 15.3281 16.7187H2.67186C2.36929 16.7177 2.07726 16.6019 1.84957 16.3927C1.62188 16.1835 1.47386 15.8949 1.43279 15.5802L0.25545 6.3057C0.243647 6.213 0.250853 6.11872 0.276584 6.02918C0.302315 5.93964 0.345977 5.8569 0.404643 5.78653C0.463309 5.71615 0.535625 5.65975 0.616742 5.62112C0.69786 5.58248 0.785907 5.56249 0.874981 5.5625H4.34139L8.53123 0.536444C8.58988 0.466614 8.66201 0.410688 8.74283 0.372381C8.82365 0.334074 8.91131 0.314262 8.99998 0.314262C9.08865 0.314262 9.17631 0.334074 9.25713 0.372381C9.33795 0.410688 9.41008 0.466614 9.46873 0.536444L13.6586 5.5625H17.125C17.2141 5.56249 17.3021 5.58248 17.3832 5.62112C17.4643 5.65975 17.5367 5.71615 17.5953 5.78653C17.654 5.8569 17.6976 5.93964 17.7234 6.02918C17.7491 6.11872 17.7563 6.213 17.7445 6.3057ZM6.00232 5.5625H11.9976L8.99998 1.96543L6.00232 5.5625ZM16.4109 6.875H1.58904L2.67186 15.4062H15.3281L16.4109 6.875Z" fill="#343330"/>
</svg>
