<svg width="21" height="14" viewBox="0 0 21 14" fill="none" xmlns="http://www.w3.org/2000/svg">
<path d="M9.61816 9.33749C10.4977 8.77983 11.1655 7.9674 11.5227 7.02035C11.8799 6.07329 11.9076 5.04189 11.6018 4.07867C11.2959 3.11544 10.6727 2.27153 9.82424 1.67174C8.97582 1.07194 7.94725 0.748093 6.89062 0.748093C5.83399 0.748093 4.80542 1.07194 3.957 1.67174C3.10857 2.27153 2.48534 3.11544 2.17948 4.07867C1.87361 5.04189 1.90133 6.07329 2.25856 7.02035C2.61578 7.9674 3.28354 8.77983 4.16308 9.33749C2.57208 9.89596 1.21332 10.9294 0.289565 12.2836C0.241016 12.3523 0.207293 12.4295 0.190358 12.5108C0.173422 12.592 0.173612 12.6757 0.190915 12.7568C0.208219 12.838 0.242291 12.9151 0.291152 12.9836C0.340013 13.0521 0.402687 13.1107 0.475532 13.156C0.548377 13.2012 0.629939 13.2322 0.715478 13.2472C0.801017 13.2622 0.888826 13.2608 0.973801 13.2431C1.05878 13.2255 1.13922 13.192 1.21046 13.1444C1.2817 13.0969 1.34232 13.0364 1.38878 12.9664C1.98465 12.0936 2.80001 11.3763 3.76083 10.8798C4.72165 10.3833 5.79747 10.1232 6.89062 10.1232C7.98376 10.1232 9.05959 10.3833 10.0204 10.8798C10.9812 11.3763 11.7966 12.0936 12.3925 12.9664C12.4887 13.1026 12.6374 13.1973 12.8064 13.23C12.9753 13.2627 13.151 13.2307 13.2955 13.141C13.4399 13.0513 13.5414 12.9111 13.5781 12.7506C13.6149 12.5902 13.5838 12.4224 13.4917 12.2836C12.5679 10.9294 11.2092 9.89596 9.61816 9.33749ZM3.28124 5.43749C3.28124 4.75762 3.49293 4.09302 3.88953 3.52772C4.28614 2.96243 4.84984 2.52184 5.50937 2.26166C6.1689 2.00148 6.89462 1.93341 7.59477 2.06605C8.29492 2.19868 8.93805 2.52607 9.44283 3.00681C9.94761 3.48756 10.2914 4.10006 10.4306 4.76687C10.5699 5.43368 10.4984 6.12485 10.2252 6.75297C9.95206 7.38109 9.48944 7.91795 8.89588 8.29567C8.30232 8.67339 7.60449 8.87499 6.89062 8.87499C5.93369 8.87396 5.01626 8.51146 4.33961 7.86703C3.66295 7.2226 3.28233 6.34886 3.28124 5.43749ZM20.5193 13.1484C20.3735 13.239 20.196 13.2706 20.0257 13.2365C19.8554 13.2024 19.7063 13.1052 19.6112 12.9664C19.0161 12.0931 18.2008 11.3755 17.2398 10.8792C16.2788 10.3829 15.2026 10.1236 14.1094 10.125C13.9353 10.125 13.7684 10.0591 13.6453 9.94194C13.5223 9.82473 13.4531 9.66576 13.4531 9.49999C13.4531 9.33423 13.5223 9.17526 13.6453 9.05805C13.7684 8.94084 13.9353 8.87499 14.1094 8.87499C14.6409 8.87452 15.1658 8.76224 15.6465 8.54618C16.1272 8.33012 16.5518 8.01561 16.8901 7.62513C17.2284 7.23465 17.4719 6.77783 17.6033 6.28732C17.7347 5.79681 17.7507 5.28471 17.6502 4.78761C17.5498 4.29051 17.3352 3.82069 17.022 3.41171C16.7087 3.00273 16.3045 2.66469 15.8382 2.42174C15.3719 2.17879 14.855 2.03693 14.3244 2.0063C13.7938 1.97566 13.2627 2.05701 12.769 2.24453C12.6885 2.27767 12.6018 2.29511 12.5141 2.29581C12.4264 2.29652 12.3395 2.28048 12.2584 2.24864C12.1773 2.21679 12.1038 2.1698 12.0421 2.11042C11.9804 2.05105 11.9318 1.98051 11.8993 1.90296C11.8667 1.82541 11.8508 1.74242 11.8524 1.65892C11.8541 1.57541 11.8734 1.49306 11.909 1.41675C11.9447 1.34044 11.996 1.27171 12.06 1.21462C12.124 1.15753 12.1994 1.11324 12.2817 1.08437C13.4117 0.655191 14.6685 0.639746 15.8097 1.04102C16.9509 1.44228 17.8956 2.23184 18.4616 3.25735C19.0276 4.28287 19.1748 5.47168 18.8748 6.59446C18.5748 7.71724 17.8488 8.69442 16.8369 9.33749C18.4279 9.89596 19.7867 10.9294 20.7104 12.2836C20.8055 12.4224 20.8387 12.5915 20.8029 12.7537C20.7671 12.9159 20.665 13.0579 20.5193 13.1484Z" fill="#343330"/>
</svg>
