<svg width="16" height="16" viewBox="0 0 16 16" fill="none" xmlns="http://www.w3.org/2000/svg">
<path d="M2.0625 10.25H0.8125C0.64674 10.25 0.487768 10.3158 0.370558 10.4331C0.253348 10.5503 0.1875 10.7092 0.1875 10.875V15.25C0.1875 15.4158 0.253348 15.5747 0.370558 15.6919C0.487768 15.8092 0.64674 15.875 0.8125 15.875H2.0625C2.80842 15.875 3.52379 15.5787 4.05124 15.0512C4.57868 14.5238 4.875 13.8084 4.875 13.0625C4.875 12.3166 4.57868 11.6012 4.05124 11.0738C3.52379 10.5463 2.80842 10.25 2.0625 10.25ZM2.0625 14.625H1.4375V11.5H2.0625C2.4769 11.5 2.87433 11.6646 3.16735 11.9576C3.46038 12.2507 3.625 12.6481 3.625 13.0625C3.625 13.4769 3.46038 13.8743 3.16735 14.1674C2.87433 14.4604 2.4769 14.625 2.0625 14.625ZM15.307 14.2414C15.4268 14.356 15.4961 14.5135 15.4998 14.6792C15.5034 14.8449 15.4411 15.0052 15.3266 15.125C15.1089 15.3593 14.8458 15.5466 14.5532 15.6756C14.2606 15.8046 13.9447 15.8724 13.625 15.875C12.2461 15.875 11.125 14.6133 11.125 13.0625C11.125 11.5117 12.2461 10.25 13.625 10.25C13.9447 10.2526 14.2606 10.3204 14.5532 10.4494C14.8458 10.5784 15.1089 10.7657 15.3266 11C15.4386 11.1202 15.4989 11.2797 15.4942 11.444C15.4895 11.6083 15.4202 11.7642 15.3015 11.8778C15.1827 11.9914 15.024 12.0537 14.8596 12.0511C14.6953 12.0485 14.5386 11.9813 14.4234 11.8641C14.322 11.7524 14.1989 11.6626 14.0616 11.6C13.9244 11.5374 13.7758 11.5034 13.625 11.5C12.9359 11.5 12.375 12.2031 12.375 13.0625C12.375 13.9219 12.9359 14.625 13.625 14.625C13.7758 14.6216 13.9244 14.5876 14.0616 14.525C14.1989 14.4624 14.322 14.3726 14.4234 14.2609C14.538 14.1412 14.6955 14.0719 14.8612 14.0682C15.0269 14.0645 15.1873 14.1268 15.307 14.2414ZM8 10.25C6.62109 10.25 5.5 11.5117 5.5 13.0625C5.5 14.6133 6.62109 15.875 8 15.875C9.37891 15.875 10.5 14.6133 10.5 13.0625C10.5 11.5117 9.37891 10.25 8 10.25ZM8 14.625C7.31094 14.625 6.75 13.9219 6.75 13.0625C6.75 12.2031 7.31094 11.5 8 11.5C8.68906 11.5 9.25 12.2031 9.25 13.0625C9.25 13.9219 8.68906 14.625 8 14.625ZM1.75 8.375C1.91576 8.375 2.07473 8.30915 2.19194 8.19194C2.30915 8.07473 2.375 7.91576 2.375 7.75V2.125H9.25V5.875C9.25 6.04076 9.31585 6.19973 9.43306 6.31694C9.55027 6.43415 9.70924 6.5 9.875 6.5H13.625V7.75C13.625 7.91576 13.6908 8.07473 13.8081 8.19194C13.9253 8.30915 14.0842 8.375 14.25 8.375C14.4158 8.375 14.5747 8.30915 14.6919 8.19194C14.8092 8.07473 14.875 7.91576 14.875 7.75V5.875C14.8751 5.7929 14.859 5.71159 14.8276 5.63572C14.7962 5.55985 14.7502 5.4909 14.6922 5.43281L10.3172 1.05781C10.2591 0.999791 10.1902 0.953782 10.1143 0.922415C10.0384 0.891047 9.9571 0.874936 9.875 0.875H2.375C2.04348 0.875 1.72554 1.0067 1.49112 1.24112C1.2567 1.47554 1.125 1.79348 1.125 2.125V7.75C1.125 7.91576 1.19085 8.07473 1.30806 8.19194C1.42527 8.30915 1.58424 8.375 1.75 8.375ZM10.5 3.00859L12.7414 5.25H10.5V3.00859Z" fill="#343330"/>
</svg>
