<svg width="17" height="19" viewBox="0 0 17 19" fill="none" xmlns="http://www.w3.org/2000/svg">
<path d="M13.984 3.27031C13.2738 2.51514 12.4289 1.91486 11.498 1.50383C10.567 1.09281 9.56816 0.879121 8.55863 0.875H8.5C6.45286 0.875 4.48957 1.73102 3.04202 3.25476C1.59447 4.77849 0.78125 6.84512 0.78125 9V13.375C0.78125 13.8723 0.968917 14.3492 1.30297 14.7008C1.63702 15.0525 2.09008 15.25 2.5625 15.25H3.75C4.22242 15.25 4.67548 15.0525 5.00953 14.7008C5.34358 14.3492 5.53125 13.8723 5.53125 13.375V10.25C5.53125 9.75272 5.34358 9.27581 5.00953 8.92417C4.67548 8.57254 4.22242 8.375 3.75 8.375H1.99547C2.10998 7.07182 2.575 5.83 3.33603 4.79508C4.09706 3.76016 5.12257 2.97502 6.29236 2.53169C7.46216 2.08836 8.72777 2.0052 9.94086 2.29196C11.1539 2.57872 12.2642 3.22352 13.1416 4.15078C14.214 5.28539 14.8736 6.78052 15.0053 8.375H13.25C12.7776 8.375 12.3245 8.57254 11.9905 8.92417C11.6564 9.27581 11.4688 9.75272 11.4688 10.25V13.375C11.4688 13.8723 11.6564 14.3492 11.9905 14.7008C12.3245 15.0525 12.7776 15.25 13.25 15.25H15.0312C15.0312 15.7473 14.8436 16.2242 14.5095 16.5758C14.1755 16.9275 13.7224 17.125 13.25 17.125H9.09375C8.93628 17.125 8.78525 17.1908 8.6739 17.3081C8.56256 17.4253 8.5 17.5842 8.5 17.75C8.5 17.9158 8.56256 18.0747 8.6739 18.1919C8.78525 18.3092 8.93628 18.375 9.09375 18.375H13.25C14.0374 18.375 14.7925 18.0458 15.3492 17.4597C15.906 16.8737 16.2188 16.0788 16.2188 15.25V9C16.2226 7.93717 16.0272 6.88398 15.6437 5.90077C15.2603 4.91757 14.6963 4.02368 13.984 3.27031ZM3.75 9.625C3.90747 9.625 4.05849 9.69085 4.16984 9.80806C4.28119 9.92527 4.34375 10.0842 4.34375 10.25V13.375C4.34375 13.5408 4.28119 13.6997 4.16984 13.8169C4.05849 13.9342 3.90747 14 3.75 14H2.5625C2.40503 14 2.25401 13.9342 2.14266 13.8169C2.03131 13.6997 1.96875 13.5408 1.96875 13.375V9.625H3.75ZM13.25 14C13.0925 14 12.9415 13.9342 12.8302 13.8169C12.7188 13.6997 12.6562 13.5408 12.6562 13.375V10.25C12.6562 10.0842 12.7188 9.92527 12.8302 9.80806C12.9415 9.69085 13.0925 9.625 13.25 9.625H15.0312V14H13.25Z" fill="#343330"/>
</svg>
