<svg width="14" height="12" viewBox="0 0 14 12" fill="none" xmlns="http://www.w3.org/2000/svg">
<path d="M14 3.51438C13.9749 4.38479 13.617 5.21244 13 5.82688L10.8281 8C10.5118 8.31806 10.1355 8.5702 9.7211 8.74186C9.30667 8.91351 8.86231 9.00125 8.41374 9H8.41062C7.95439 8.99968 7.50285 8.90793 7.08268 8.73017C6.66251 8.55241 6.28222 8.29224 5.96428 7.96504C5.64635 7.63784 5.39721 7.25024 5.23158 6.82514C5.06596 6.40004 4.98721 5.94605 4.99999 5.49C5.00372 5.35739 5.05998 5.2317 5.15638 5.14057C5.25279 5.04944 5.38144 5.00034 5.51405 5.00407C5.64666 5.0078 5.77236 5.06405 5.86349 5.16046C5.95462 5.25686 6.00372 5.38552 5.99999 5.51813C5.99089 5.84058 6.04651 6.16159 6.16357 6.46218C6.28063 6.76278 6.45676 7.03685 6.68155 7.26822C6.90633 7.49959 7.17521 7.68356 7.4723 7.80924C7.76939 7.93493 8.08866 7.9998 8.41124 8C8.72834 8.00082 9.04246 7.93876 9.33544 7.81743C9.62842 7.6961 9.89443 7.5179 10.1181 7.29313L12.29 5.12125C12.7381 4.66751 12.9885 4.05491 12.9865 3.41719C12.9845 2.77948 12.7303 2.16846 12.2793 1.71753C11.8284 1.2666 11.2174 1.01238 10.5797 1.01039C9.94196 1.00839 9.32936 1.25878 8.87562 1.70688L8.18812 2.39438C8.09358 2.48419 7.96771 2.53352 7.83733 2.53185C7.70695 2.53018 7.58238 2.47764 7.49018 2.38544C7.39798 2.29324 7.34544 2.16867 7.34377 2.03829C7.3421 1.90791 7.39143 1.78203 7.48124 1.6875L8.16874 1C8.48593 0.682709 8.86251 0.431011 9.27699 0.259287C9.69147 0.0875625 10.1357 -0.000823975 10.5844 -0.000823975C11.033 -0.000823975 11.4773 0.0875625 11.8917 0.259287C12.3062 0.431011 12.6828 0.682709 13 1C13.3285 1.32935 13.5866 1.72211 13.7585 2.15437C13.9304 2.58663 14.0126 3.04936 14 3.51438ZM5.81249 9.60375L5.12499 10.2913C4.90076 10.517 4.63389 10.6959 4.3399 10.8176C4.04591 10.9392 3.73066 11.0012 3.41249 11C2.93518 10.9996 2.46869 10.8578 2.07197 10.5924C1.67524 10.327 1.36609 9.94993 1.18356 9.5089C1.00104 9.06787 0.95333 8.58263 1.04647 8.11449C1.13961 7.64636 1.36942 7.21633 1.70687 6.87875L3.87499 4.70688C4.21648 4.36358 4.65331 4.1309 5.12874 4.03906C5.60416 3.94721 6.09622 4.00044 6.54101 4.19183C6.9858 4.38323 7.36276 4.70394 7.62294 5.11232C7.88311 5.5207 8.01449 5.99788 7.99999 6.48188C7.99626 6.61449 8.04536 6.74314 8.13649 6.83955C8.22762 6.93596 8.35332 6.99221 8.48593 6.99594C8.61854 6.99967 8.7472 6.95057 8.8436 6.85944C8.94001 6.76831 8.99626 6.64261 8.99999 6.51C9.012 6.04571 8.92955 5.58382 8.75765 5.15235C8.58575 4.72088 8.32798 4.32884 7.99999 4C7.35948 3.35977 6.49093 3.00011 5.5853 3.00011C4.67968 3.00011 3.81113 3.35977 3.17062 4L0.999991 6.17188C0.522635 6.64904 0.197438 7.257 0.065497 7.91892C-0.066444 8.58085 0.000792593 9.26703 0.25871 9.89075C0.516627 10.5145 0.953649 11.0477 1.51455 11.4232C2.07544 11.7986 2.73504 11.9993 3.40999 12C3.85866 12.0013 4.30313 11.9136 4.71767 11.7419C5.1322 11.5703 5.50857 11.3181 5.82499 11L6.51249 10.3125C6.59341 10.2172 6.63568 10.095 6.63097 9.97009C6.62627 9.84515 6.57493 9.72651 6.48707 9.63756C6.39921 9.5486 6.28122 9.49579 6.15635 9.48953C6.03148 9.48328 5.9088 9.52403 5.81249 9.60375Z" fill="#1C1C1C" fill-opacity="0.2"/>
</svg>
