<svg width="17" height="18" viewBox="0 0 17 18" fill="none" xmlns="http://www.w3.org/2000/svg">
<path d="M16.4883 1.86531C16.4698 1.54532 16.3404 1.24352 16.1245 1.01684C15.9086 0.790163 15.6212 0.654282 15.3164 0.634837C14.3336 0.573313 11.8219 0.667649 9.73752 2.85542L9.36643 3.24999H4.8094C4.64462 3.24902 4.48129 3.28246 4.32893 3.34836C4.17657 3.41427 4.03821 3.51133 3.9219 3.6339L1.24221 6.44921C1.07787 6.62165 0.962556 6.83876 0.909202 7.07619C0.855848 7.31362 0.866567 7.56196 0.940158 7.79334C1.01375 8.02473 1.1473 8.23 1.32582 8.38612C1.50434 8.54224 1.72076 8.64303 1.9508 8.67718L4.95627 9.11769L8.41018 12.7443L8.82971 15.9017C8.86197 16.1432 8.95794 16.3705 9.10677 16.5578C9.25559 16.7451 9.45135 16.8849 9.6719 16.9615C9.80036 17.0066 9.9349 17.0296 10.0703 17.0296C10.2343 17.0299 10.3968 16.9962 10.5483 16.9303C10.6998 16.8644 10.8374 16.7677 10.9531 16.6457L13.6344 13.832C13.7511 13.7099 13.8436 13.5646 13.9063 13.4046C13.9691 13.2447 14.001 13.0732 14 12.9002V8.11527L14.3727 7.72398C16.4571 5.53538 16.5469 2.89808 16.4883 1.86531ZM4.8094 4.56249H8.11643L5.02815 7.80437L2.12502 7.37945L4.8094 4.56249ZM10.6227 3.7873C11.2232 3.15282 11.9458 2.66019 12.7422 2.34233C13.5385 2.02447 14.3903 1.88869 15.2406 1.94406C15.2954 2.83736 15.1674 3.73262 14.8653 4.56968C14.5632 5.40674 14.094 6.1662 13.4891 6.79702L9.00002 11.5089L6.1344 8.49999L10.6227 3.7873ZM12.75 12.9002L10.068 15.7187L9.66252 12.6696L12.75 9.42777V12.9002ZM6.95627 13.6794C6.60471 14.4883 5.42893 16.375 2.12502 16.375C1.95926 16.375 1.80029 16.3059 1.68308 16.1828C1.56587 16.0597 1.50002 15.8928 1.50002 15.7187C1.50002 12.2496 3.2969 11.0151 4.06721 10.6451C4.1419 10.6093 4.22257 10.5894 4.30461 10.5863C4.38664 10.5833 4.46845 10.5973 4.54535 10.6274C4.62225 10.6576 4.69273 10.7034 4.75278 10.7622C4.81283 10.8209 4.86127 10.8915 4.89534 10.97C4.9294 11.0484 4.94841 11.1331 4.9513 11.2192C4.95419 11.3054 4.94089 11.3913 4.91216 11.472C4.88343 11.5527 4.83984 11.6268 4.78387 11.6898C4.7279 11.7529 4.66065 11.8037 4.58596 11.8395C4.08362 12.0798 2.97502 12.8534 2.77971 15.0313C4.85393 14.8262 5.59221 13.6622 5.81955 13.1348C5.85362 13.0563 5.90206 12.9857 5.96211 12.927C6.02216 12.8682 6.09265 12.8224 6.16954 12.7923C6.24644 12.7621 6.32825 12.7481 6.41028 12.7512C6.49232 12.7542 6.57299 12.7742 6.64768 12.8099C6.72237 12.8457 6.78962 12.8965 6.84559 12.9596C6.90156 13.0226 6.94515 13.0967 6.97388 13.1774C7.00261 13.2581 7.01591 13.344 7.01302 13.4302C7.01013 13.5163 6.99112 13.601 6.95705 13.6794H6.95627Z" fill="#343330"/>
</svg>
