<svg width="18" height="19" viewBox="0 0 18 19" fill="none" xmlns="http://www.w3.org/2000/svg">
<path d="M8.99998 5.56251C8.25829 5.56251 7.53327 5.79344 6.91659 6.2261C6.2999 6.65875 5.81926 7.27371 5.53543 7.99319C5.2516 8.71268 5.17734 9.50438 5.32203 10.2682C5.46672 11.032 5.82388 11.7336 6.34832 12.2842C6.87277 12.8349 7.54096 13.2099 8.26839 13.3619C8.99582 13.5138 9.74981 13.4358 10.435 13.1378C11.1203 12.8398 11.7059 12.3351 12.118 11.6876C12.53 11.04 12.75 10.2788 12.75 9.50001C12.7489 8.45605 12.3535 7.45516 11.6505 6.71697C10.9474 5.97878 9.99422 5.56359 8.99998 5.56251ZM8.99998 12.125C8.50552 12.125 8.02217 11.9711 7.61105 11.6826C7.19993 11.3942 6.87949 10.9842 6.69028 10.5046C6.50106 10.0249 6.45155 9.4971 6.54801 8.9879C6.64447 8.4787 6.88258 8.01096 7.23221 7.64385C7.58184 7.27674 8.0273 7.02673 8.51225 6.92545C8.9972 6.82416 9.49987 6.87614 9.95668 7.07482C10.4135 7.2735 10.8039 7.60996 11.0786 8.04164C11.3534 8.47332 11.5 8.98083 11.5 9.50001C11.5 10.1962 11.2366 10.8639 10.7677 11.3562C10.2989 11.8484 9.66302 12.125 8.99998 12.125ZM15.875 9.6772C15.8781 9.55907 15.8781 9.44094 15.875 9.32282L17.0406 7.79376C17.1017 7.71347 17.144 7.61924 17.1641 7.51865C17.1842 7.41805 17.1815 7.31391 17.1562 7.21462C16.9651 6.46042 16.6793 5.73629 16.3062 5.0613C16.2574 4.97296 16.1896 4.89782 16.1082 4.84186C16.0268 4.78589 15.9341 4.75064 15.8375 4.73891L13.9844 4.52235C13.9073 4.43704 13.8291 4.35501 13.75 4.27626L13.5312 2.32555C13.52 2.22401 13.4863 2.12663 13.4328 2.04118C13.3794 1.95572 13.3077 1.88456 13.2234 1.83337C12.5803 1.44236 11.8907 1.14253 11.1726 0.941687C11.078 0.91527 10.9788 0.912568 10.883 0.933799C10.7872 0.955029 10.6975 0.999598 10.6211 1.06391L9.16873 2.28126C9.05622 2.28126 8.94372 2.28126 8.83122 2.28126L7.37497 1.05981C7.29851 0.995637 7.20877 0.951217 7.11297 0.930129C7.01716 0.909042 6.91798 0.911877 6.82341 0.938405C6.10525 1.1394 5.41564 1.43952 4.77263 1.83091C4.6885 1.8822 4.61694 1.9534 4.56364 2.03885C4.51034 2.12429 4.47677 2.22162 4.4656 2.32309L4.25935 4.27216C4.1781 4.35364 4.09997 4.43567 4.02497 4.51825L2.16716 4.74219C2.07045 4.75401 1.97771 4.78938 1.89633 4.8455C1.81494 4.90161 1.74717 4.97691 1.69841 5.0654C1.32603 5.74065 1.04047 6.46472 0.849193 7.21872C0.824035 7.31808 0.821462 7.42226 0.841681 7.52285C0.861901 7.62345 0.904347 7.71765 0.9656 7.79786L2.12497 9.32282C2.12497 9.44094 2.12497 9.55907 2.12497 9.6772L0.961693 11.2063C0.900575 11.2865 0.85827 11.3808 0.838186 11.4814C0.818103 11.582 0.820803 11.6861 0.846068 11.7854C1.03715 12.5396 1.323 13.2637 1.69607 13.9387C1.74492 14.0271 1.81273 14.1022 1.89411 14.1582C1.97548 14.2141 2.06818 14.2494 2.16482 14.2611L4.01794 14.4777C4.09555 14.563 4.17367 14.645 4.25232 14.7238L4.46872 16.6745C4.47998 16.776 4.51367 16.8734 4.56711 16.9588C4.62055 17.0443 4.69227 17.1155 4.77654 17.1666C5.41963 17.5577 6.10923 17.8575 6.82732 18.0583C6.92195 18.0847 7.02116 18.0874 7.11697 18.0662C7.21277 18.045 7.30249 18.0004 7.37888 17.9361L8.83122 16.7188C8.94372 16.722 9.05622 16.722 9.16873 16.7188L10.625 17.9427C10.7014 18.0068 10.7912 18.0513 10.887 18.0723C10.9828 18.0934 11.082 18.0906 11.1765 18.0641C11.8948 17.8634 12.5845 17.5633 13.2273 17.1716C13.3114 17.1203 13.383 17.0491 13.4363 16.9636C13.4896 16.8782 13.5232 16.7809 13.5343 16.6794L13.7406 14.7336C13.8218 14.6527 13.9 14.5706 13.975 14.4875L15.8328 14.2578C15.9295 14.246 16.0222 14.2106 16.1036 14.1545C16.185 14.0984 16.2528 14.0231 16.3015 13.9346C16.6739 13.2594 16.9595 12.5353 17.1508 11.7813C17.1759 11.6819 17.1785 11.5778 17.1583 11.4772C17.138 11.3766 17.0956 11.2824 17.0343 11.2022L15.875 9.6772ZM14.6172 9.14399C14.6304 9.38113 14.6304 9.61888 14.6172 9.85602C14.6079 10.0184 14.6563 10.1786 14.7531 10.3056L15.8617 11.76C15.7345 12.1845 15.5716 12.5962 15.375 12.9904L13.6094 13.2004C13.4556 13.2184 13.3136 13.2955 13.2109 13.417C13.0605 13.5946 12.9004 13.7628 12.7312 13.9207C12.6155 14.0285 12.542 14.1776 12.525 14.339L12.3289 16.1913C11.9535 16.3979 11.5613 16.5689 11.157 16.7024L9.77107 15.5383C9.66016 15.4453 9.5224 15.3947 9.38044 15.3948H9.34294C9.1171 15.4087 8.89067 15.4087 8.66482 15.3948C8.5102 15.385 8.35763 15.4359 8.23669 15.5375L6.84763 16.7024C6.44336 16.5688 6.05119 16.3978 5.67576 16.1913L5.47576 14.3399C5.45869 14.1784 5.3852 14.0293 5.26951 13.9215C5.10037 13.7636 4.9402 13.5954 4.78982 13.4178C4.68711 13.2963 4.54514 13.2192 4.39138 13.2013L2.62732 12.9945C2.43059 12.6004 2.26771 12.1886 2.1406 11.7641L3.24919 10.3088C3.34599 10.1819 3.39444 10.0217 3.38513 9.85931C3.37185 9.62217 3.37185 9.38441 3.38513 9.14727C3.39444 8.98492 3.34599 8.82472 3.24919 8.69774L2.1406 7.24005C2.26781 6.81556 2.43069 6.40379 2.62732 6.00958L4.3906 5.79958C4.54436 5.78166 4.68633 5.70449 4.78904 5.58302C4.93942 5.40542 5.09959 5.23725 5.26872 5.07934C5.38488 4.97143 5.45867 4.82202 5.47576 4.66016L5.67185 2.80872C6.04724 2.60216 6.43942 2.43113 6.84372 2.29766L8.22966 3.46169C8.35059 3.56333 8.50316 3.61419 8.65779 3.60442C8.88363 3.59048 9.11007 3.59048 9.33591 3.60442C9.49054 3.61419 9.64311 3.56333 9.76404 3.46169L11.1523 2.29766C11.5566 2.43123 11.9488 2.60225 12.3242 2.80872L12.5242 4.66016C12.5413 4.82161 12.6148 4.97068 12.7304 5.07852C12.8996 5.23642 13.0597 5.4046 13.2101 5.58219C13.3128 5.70367 13.4548 5.78084 13.6086 5.79876L15.3726 6.00466C15.5694 6.39882 15.7322 6.8106 15.8594 7.23512L14.7508 8.69036C14.653 8.81841 14.6045 8.98025 14.6148 9.14399H14.6172Z" fill="#343330"/>
</svg>
